<?xml version="1.0" encoding="UTF-8"?>
<svg width="30px" height="30px" viewBox="0 0 30 30" version="1.1" xmlns="http://www.w3.org/2000/svg" xmlns:xlink="http://www.w3.org/1999/xlink">
    <!-- Generator: Sketch 41.2 (35397) - http://www.bohemiancoding.com/sketch -->
    <title>PersonaGenerator</title>
    <desc>PersonaGenerator - Created by Mobility Labs</desc>
    <defs></defs>
    <g id="Symbols" stroke="none" stroke-width="1" fill="none" fill-rule="evenodd">
        <g id="Group-Copy">
            <circle id="Oval" fill="#00A0F1" cx="15" cy="15" r="15"></circle>
            <path d="M8.72079824,23.25 L7.79999971,23.25 L7.79999971,7.5 L17.9744857,7.5 C19.0827155,7.5 20.0344116,7.62525613 20.8296025,7.87577213 C21.6247934,8.12628814 22.2796467,8.47117145 22.794182,8.9104324 C23.3087172,9.34969334 23.6883162,9.86787622 23.9329904,10.4649966 C24.1776645,11.0621169 24.2999997,11.7072718 24.2999997,12.4004804 C24.2999997,13.1485967 24.1740664,13.8349317 23.922196,14.4595058 C23.6703256,15.08408 23.2853294,15.6194212 22.767196,16.0655456 C22.2490625,16.51167 21.5924102,16.859985 20.7972193,17.110501 C20.0020284,17.361017 19.0611266,17.4862732 17.9744857,17.4862732 L14.0907867,17.4862732 C14.094035,17.4635116 14.0951916,17.4393503 14.094136,17.4137198 C14.0341888,15.9582032 15.4749401,14.8649998 17.1782482,14.8649998 C18.8815563,14.8649998 12.4613264,14.8844604 11.4449995,14.8649998 C11.4531248,15.5612977 11.4569226,17.0250826 11.4503033,17.4862732 L11.4485044,17.4862732 L11.4485044,17.577052 C11.4474986,17.6119159 11.4463339,17.6300963 11.4449995,17.628479 C11.4461637,17.6284553 11.447332,17.6284333 11.4485044,17.6284132 L11.4485044,20.6180117 C11.4414871,20.648582 11.4385544,20.6818951 11.4400475,20.7181473 C11.4956605,22.0684298 10.2597319,23.1068959 8.72079824,23.25 Z M11.4485044,14.8610158 L17.9744857,14.8610158 C18.924397,14.8610158 19.608035,14.6448203 20.0254203,14.2124228 C20.4428055,13.7800253 20.651495,13.1760505 20.651495,12.4004804 C20.651495,12.0573078 20.5975236,11.7450254 20.4895792,11.4636239 C20.3816347,11.1822223 20.2179214,10.9402893 19.9984343,10.7378174 C19.7789472,10.5353456 19.5018939,10.3792044 19.1672661,10.2693892 C18.8326382,10.1595739 18.4350487,10.1046671 17.9744857,10.1046671 L11.4485044,10.1046671 L11.4485044,14.8610158 Z" id="P" fill="#FFFFFF"></path>
        </g>
    </g>
</svg>