<?xml version="1.0" encoding="UTF-8"?>
<svg width="245px" height="106px" viewBox="0 0 245 106" version="1.1" xmlns="http://www.w3.org/2000/svg" xmlns:xlink="http://www.w3.org/1999/xlink">
    <!-- Generator: Sketch 41.2 (35397) - http://www.bohemiancoding.com/sketch -->
    <title>Mobility Labs Logo</title>
    <defs></defs>
    <g id="Page-1" stroke="none" stroke-width="1" fill="none" fill-rule="evenodd">
        <g id="Artboard" fill="#2D3F5F">
            <path d="M227.128642,44.7920468 C226.458304,45.2204203 226.123135,45.8685051 226.123135,46.7357577 C226.123135,47.6030102 226.458304,48.2663099 227.128642,48.7254756 C227.798979,49.1846413 229.224347,49.6794897 231.406547,50.2100208 C233.59055,50.740733 235.233957,51.4855414 236.340374,52.4448082 C237.446791,53.4038939 238,54.8170737 238,56.6843474 C238,58.5516212 237.300831,60.0667774 235.898889,61.2301783 C234.498749,62.393398 232.660727,62.9750079 230.386625,62.9750079 C227.056562,62.9750079 224.103113,61.8219314 221.524477,59.5159597 L223.778757,56.7915767 C225.930323,58.6689937 228.162979,59.6076117 230.478526,59.6076117 C231.635399,59.6076117 232.55441,59.3576517 233.233757,58.8577317 C233.914906,58.3578116 234.253679,57.6945119 234.253679,56.8680137 C234.253679,56.0415155 233.934728,55.3986835 233.295025,54.9395178 C232.655321,54.4803522 231.55431,54.0619408 229.991991,53.684465 C228.427871,53.3069891 227.240364,52.9599432 226.42767,52.6436894 C225.616778,52.3274357 224.895986,51.914096 224.265292,51.4040327 C223.007508,50.4447658 222.378616,48.9754356 222.378616,46.995861 C222.378616,45.0164675 223.094003,43.4909868 224.524777,42.4196002 C225.955551,41.3482136 227.7269,40.8124298 229.838823,40.8124298 C231.199319,40.8124298 232.549004,41.0370315 233.889679,41.4860539 C235.228551,41.9348952 236.385424,42.5675838 237.360296,43.3837576 L235.442987,46.1081407 C234.812294,45.5368552 233.959956,45.0673651 232.884173,44.7000326 C231.808389,44.3328811 230.747022,44.1492149 229.701872,44.1492149 C228.656722,44.1492149 227.798979,44.3633111 227.128642,44.7920468 L227.128642,44.7920468 Z M207.155471,59.3933344 L212.790269,59.3933344 C214.10932,59.3933344 215.120232,59.1843099 215.819401,58.7658985 C216.520372,58.3474872 216.871759,57.5568528 216.871759,56.3934519 C216.871759,54.4955671 215.358094,53.5468058 212.332566,53.5468058 L207.155471,53.5468058 L207.155471,59.3933344 L207.155471,59.3933344 Z M207.155471,50.2100208 L211.723496,50.2100208 C214.323756,50.2100208 215.622985,49.3224816 215.622985,47.5468598 C215.622985,46.526552 215.307638,45.7918869 214.678747,45.3430457 C214.048053,44.8940233 213.074982,44.6696026 211.75413,44.6696026 L207.155471,44.6696026 L207.155471,50.2100208 L207.155471,50.2100208 Z M212.88217,62.7301195 L203.562319,62.7301195 L203.562319,41.3329987 L211.846031,41.3329987 C213.287616,41.3329987 214.530984,41.5063405 215.576134,41.8532053 C216.621283,42.2002513 217.397938,42.6695603 217.906097,43.2614946 C218.880969,44.3634922 219.367504,45.6082206 219.367504,46.995861 C219.367504,48.6693252 218.839523,49.9142347 217.785364,50.7304085 C217.397938,51.0162324 217.134848,51.194827 216.992492,51.2661924 C216.850135,51.3375578 216.596056,51.4549303 216.232055,51.6181288 C217.551106,51.9039527 218.601662,52.5007775 219.383722,53.4089656 C220.165782,54.3171536 220.555011,55.4445095 220.555011,56.7915767 C220.555011,58.2811935 220.048654,59.5974684 219.032336,60.7402204 C217.835819,62.0668198 215.785164,62.7301195 212.88217,62.7301195 L212.88217,62.7301195 Z M194.619081,54.5261782 L190.752027,45.7103782 L186.884973,54.5261782 L194.619081,54.5261782 L194.619081,54.5261782 Z M185.421764,57.8627821 L183.29092,62.7301195 L179.453779,62.7301195 L188.832916,41.3329987 L192.671138,41.3329987 L202.050456,62.7301195 L198.212233,62.7301195 L196.080489,57.8627821 L185.421764,57.8627821 L185.421764,57.8627821 Z M165.171088,62.7301195 L165.171088,41.3329987 L168.764601,41.3329987 L168.764601,59.3016824 L178.479267,59.3016824 L178.479267,62.7301195 L165.171088,62.7301195 L165.171088,62.7301195 Z M146.838082,62.7301195 L142.087336,62.7301195 L142.087336,54.2812898 L134.717589,41.3329987 L139.864231,41.3329987 L144.462709,49.2918705 L149.061187,41.3329987 L154.207829,41.3329987 L146.838082,54.2812898 L146.838082,62.7301195 L146.838082,62.7301195 Z M126.728501,45.4653087 L126.728501,62.7301195 L121.977756,62.7301195 L121.977756,45.4653087 L115.947963,45.4653087 L115.947963,41.3329987 L132.758294,41.3329987 L132.758294,45.4653087 L126.728501,45.4653087 L126.728501,45.4653087 Z M107.725518,41.3329987 L112.476264,41.3329987 L112.476264,62.7301195 L107.725518,62.7301195 L107.725518,41.3329987 Z M90.4279307,62.7301195 L90.4279307,41.3329987 L95.1786765,41.3329987 L95.1786765,58.475003 L104.253819,58.475003 L104.253819,62.7301195 L90.4279307,62.7301195 L90.4279307,62.7301195 Z M81.159976,41.3329987 L85.9107218,41.3329987 L85.9107218,62.7301195 L81.159976,62.7301195 L81.159976,41.3329987 Z M65.7211332,58.6892804 L68.9796576,58.6892804 C70.339974,58.6892804 71.3600761,58.5210102 72.0401442,58.1842887 C72.7203924,57.8475672 73.0604265,57.1842675 73.0604265,56.1945707 C73.0604265,55.204874 72.70003,54.5517176 71.9792372,54.2354638 C71.2586245,53.91921 70.1064371,53.760902 68.5228551,53.760902 L65.7211332,53.760902 L65.7211332,58.6892804 L65.7211332,58.6892804 Z M65.7211332,49.9959246 L67.9746922,49.9959246 C69.2942837,49.9959246 70.2738412,49.8530126 70.9133647,49.5671888 C71.5530684,49.2815461 71.87274,48.6642535 71.87274,47.7153111 C71.87274,46.7663687 71.5782961,46.1387517 70.9895885,45.8328224 C70.400881,45.5265308 69.4060066,45.3736567 68.0051457,45.3736567 L65.7211332,45.3736567 L65.7211332,49.9959246 L65.7211332,49.9959246 Z M70.2891581,62.7301195 L60.9703874,62.7301195 L60.9703874,41.3329987 L69.2537391,41.3329987 C70.6951447,41.3329987 71.9386926,41.5063405 72.9842026,41.8532053 C74.0298929,42.2002513 74.8166383,42.6695603 75.3444389,43.2614946 C76.2985884,44.3634922 76.7757533,45.6082206 76.7757533,46.995861 C76.7757533,48.6693252 76.2376814,49.9142347 75.1617179,50.7304085 C74.7962759,51.0162324 74.5425568,51.194827 74.4003804,51.2661924 C74.258204,51.3375578 74.0044849,51.4549303 73.6390429,51.6181288 C74.9586345,51.9039527 76.0093703,52.5007775 76.79089,53.4089656 C77.5725898,54.3171536 77.9634398,55.4445095 77.9634398,56.7915767 C77.9634398,58.2811935 77.4558214,59.5974684 76.4407648,60.7402204 C75.2631695,62.0668198 73.212694,62.7301195 70.2891581,62.7301195 L70.2891581,62.7301195 Z M28.3858645,49.2612595 L22.6301532,60.9546788 L19.7979778,60.9546788 L14.07272,49.2612595 L14.07272,62.7301195 L9.32197417,62.7301195 L9.32197417,41.3329987 L15.7476624,41.3329987 L21.2292922,53.087459 L26.7413755,41.3329987 L33.1366103,41.3329987 L33.1366103,62.7301195 L28.3858645,62.7301195 L28.3858645,49.2612595 L28.3858645,49.2612595 Z M73.7659025,97 C74.7906898,97 75.6214035,96.1648075 75.6214035,95.1348998 C75.6214035,94.1048109 74.7906898,93.2697996 73.7659025,93.2697996 C72.7412954,93.2697996 71.9105816,94.1048109 71.9105816,95.1348998 C71.9105816,96.1648075 72.7412954,97 73.7659025,97 L73.7659025,97 Z M63.3753128,91.0315707 C64.8098709,91.0315707 65.9730504,89.8625547 65.9730504,88.4205753 C65.9730504,86.9784146 64.8098709,85.8093987 63.3753128,85.8093987 C61.9405746,85.8093987 60.7775753,86.9784146 60.7775753,88.4205753 C60.7775753,89.8625547 61.9405746,91.0315707 63.3753128,91.0315707 L63.3753128,91.0315707 Z M54.4690159,80.2142792 C56.5185904,80.2142792 58.180018,78.5440754 58.180018,76.4840788 C58.180018,74.4239011 56.5185904,72.7538784 54.4690159,72.7538784 C52.4194414,72.7538784 50.7580138,74.4239011 50.7580138,76.4840788 C50.7580138,78.5440754 52.4194414,80.2142792 54.4690159,80.2142792 L54.4690159,80.2142792 Z M5.85550105,23.8888688 C6.88028832,23.8888688 7.7110021,23.0538574 7.7110021,22.0237686 C7.7110021,20.9936797 6.88028832,20.1586683 5.85550105,20.1586683 C4.83071379,20.1586683 4,20.9936797 4,22.0237686 C4,23.0538574 4.83071379,23.8888688 5.85550105,23.8888688 L5.85550105,23.8888688 Z M18.1015918,26.5000453 C19.53633,26.5000453 20.6993293,25.3310294 20.6993293,23.8888688 C20.6993293,22.4467081 19.53633,21.2776922 18.1015918,21.2776922 C16.6670337,21.2776922 15.5040344,22.4467081 15.5040344,23.8888688 C15.5040344,25.3310294 16.6670337,26.5000453 18.1015918,26.5000453 L18.1015918,26.5000453 Z M30.3478626,35.4524176 C32.397257,35.4524176 34.0586846,33.7822138 34.0586846,31.7222172 C34.0586846,29.6620395 32.397257,27.9920168 30.3478626,27.9920168 C28.2982881,27.9920168 26.6368605,29.6620395 26.6368605,31.7222172 C26.6368605,33.7822138 28.2982881,35.4524176 30.3478626,35.4524176 L30.3478626,35.4524176 Z M66.7151066,6.73020042 C67.7398939,6.73020042 68.5706077,5.89518906 68.5706077,4.86510021 C68.5706077,3.83501136 67.7398939,3 66.7151066,3 C65.6904995,3 64.8596056,3.83501136 64.8596056,4.86510021 C64.8596056,5.89518906 65.6904995,6.73020042 66.7151066,6.73020042 L66.7151066,6.73020042 Z M67.8283712,20.1586683 C69.2631094,20.1586683 70.4261087,18.9896524 70.4261087,17.547673 C70.4261087,16.1055123 69.2631094,14.9364964 67.8283712,14.9364964 C66.3938132,14.9364964 65.2308139,16.1055123 65.2308139,17.547673 C65.2308139,18.9896524 66.3938132,20.1586683 67.8283712,20.1586683 L67.8283712,20.1586683 Z M63.0042847,35.0792889 C65.053679,35.0792889 66.7151066,33.4092662 66.7151066,31.3490885 C66.7151066,29.2890919 65.053679,27.6190692 63.0042847,27.6190692 C60.9547102,27.6190692 59.2932826,29.2890919 59.2932826,31.3490885 C59.2932826,33.4092662 60.9547102,35.0792889 63.0042847,35.0792889 L63.0042847,35.0792889 Z M47.0470117,63.0554298 C53.1955551,63.0554298 58.180018,58.0453616 58.180018,51.8650096 C58.180018,45.6846577 53.1955551,40.6745895 47.0470117,40.6745895 C40.8986485,40.6745895 35.9141856,45.6846577 35.9141856,51.8650096 C35.9141856,58.0453616 40.8986485,63.0554298 47.0470117,63.0554298 L47.0470117,63.0554298 Z" id="Fill-1"></path>
        </g>
    </g>
</svg>